<svg xmlns="http://www.w3.org/2000/svg" viewBox="0 0 512 512" fill="none">
  <!-- Green circle base representing a coin / growth -->
  <circle cx="256" cy="256" r="240" fill="#22c55e" />
  <!-- Dollar symbol in dark slate representing finance -->
  <path d="M256 96c-17.7 0-32 14.3-32 32v16.2c-29.3 5.4-52 31-52 61.8 0 34.8 28.2 63 63 63h42c16.6 0 30 13.4 30 30s-13.4 30-30 30h-42c-15.6 0-28.7-11.2-31.6-26.6-3.2-17.1-19.6-28.1-36.7-24.9-17.1 3.2-28.1 19.6-24.9 36.7C168.1 359 204.6 388 248 393.8V416c0 17.7 14.3 32 32 32s32-14.3 32-32v-16.2c29.3-5.4 52-31 52-61.8 0-34.8-28.2-63-63-63h-42c-16.6 0-30-13.4-30-30s13.4-30 30-30h42c15.6 0 28.7 11.2 31.6 26.6 3.2 17.1 19.6 28.1 36.7 24.9 17.1-3.2 28.1-19.6 24.9-36.7C375.9 177 339.4 148 296 142.2V128c0-17.7-14.3-32-32-32z" fill="#0f172a" />
</svg>